<svg id="Layer_1" data-name="Layer 1" xmlns="http://www.w3.org/2000/svg" xmlns:xlink="http://www.w3.org/1999/xlink" viewBox="0 0 397.4 334.8"><defs><style>.cls-1{fill:none;}.cls-2{fill:#ffdd4e;}.cls-3{opacity:0.07;}.cls-4{fill:#010101;}.cls-5{opacity:0.03;}.cls-6{fill:#f05965;}.cls-7{opacity:0.48;}.cls-8{fill:#fff;}.cls-9{clip-path:url(#clip-path);}.cls-10{opacity:0.18;}.cls-11{clip-path:url(#clip-path-2);}.cls-12{opacity:0.49;}</style><clipPath id="clip-path" transform="translate(-102 -124.1)"><path class="cls-1" d="M168.5,351.2V197.3L320,279.6V450.2L182.3,374.7A26.8,26.8,0,0,1,168.5,351.2Z"/></clipPath><clipPath id="clip-path-2" transform="translate(-102 -124.1)"><path class="cls-1" d="M451.4,376.6,320,450.2V279.6l151.5-82.2V342.2A39.4,39.4,0,0,1,451.4,376.6Z"/></clipPath></defs><title>box</title><g id="_17" data-name="17"><path class="cls-2" d="M168.5,197.3l132.8-67.9a48.6,48.6,0,0,1,45.2.5l125,67.4L320,279.6Z" transform="translate(-102 -124.1)"/><path class="cls-2" d="M168.5,351.2V197.3L320,279.6V450.2L182.3,374.7A26.8,26.8,0,0,1,168.5,351.2Z" transform="translate(-102 -124.1)"/><g class="cls-3"><path class="cls-4" d="M168.5,351.2V197.3L320,279.6V450.2L182.3,374.7A26.8,26.8,0,0,1,168.5,351.2Z" transform="translate(-102 -124.1)"/></g><path class="cls-2" d="M451.4,376.6,320,450.2V279.6l151.5-82.2V342.2A39.4,39.4,0,0,1,451.4,376.6Z" transform="translate(-102 -124.1)"/><g class="cls-5"><path class="cls-4" d="M451.4,376.6,320,450.2V279.6l151.5-82.2V342.2A39.4,39.4,0,0,1,451.4,376.6Z" transform="translate(-102 -124.1)"/></g><path class="cls-6" d="M231.1,342.1v26a9.6,9.6,0,0,0,5,8.4l44.3,24a9.6,9.6,0,0,0,14.1-8.4v-26a9.6,9.6,0,0,0-5-8.4l-44.3-24A9.6,9.6,0,0,0,231.1,342.1Z" transform="translate(-102 -124.1)"/><g class="cls-7"><path class="cls-8" d="M268.4,144.7l156.4,81.1v46.4s.9,9.6-13.8,8.5c-7.8-.6-3.4,11.1-15.1,11.7s-14.1-7-14.1-7l-.3-36.9L226.8,164.9Z" transform="translate(-102 -124.1)"/></g><g class="cls-7"><path class="cls-8" d="M284.4,371.6h0a4.2,4.2,0,0,1-5.7,1.8l-38-19.7A4.2,4.2,0,0,1,239,348h0a4.2,4.2,0,0,1,5.7-1.8l38,19.7A4.2,4.2,0,0,1,284.4,371.6Z" transform="translate(-102 -124.1)"/></g><g class="cls-7"><path class="cls-8" d="M284.4,386.6h0a4.2,4.2,0,0,1-5.7,1.8l-38-19.7A4.2,4.2,0,0,1,239,363h0a4.2,4.2,0,0,1,5.7-1.8l38,19.7A4.2,4.2,0,0,1,284.4,386.6Z" transform="translate(-102 -124.1)"/></g><g class="cls-9"><g class="cls-10"><circle class="cls-8" cx="91.5" cy="93.9" r="91.5"/></g></g><g class="cls-11"><g class="cls-3"><path class="cls-4" d="M320,450.2s-5.7-82.3,66.2-83.1,106.5-99,55.9-168.4l49.3-17.5,8,243.7S373.7,479.6,320,450.2Z" transform="translate(-102 -124.1)"/></g></g><g class="cls-12"><path class="cls-8" d="M300.8,149.4a6.7,6.7,0,0,1,.5-9.5,33.8,33.8,0,0,1,47.7,2.6,6.7,6.7,0,1,1-10,9,20.4,20.4,0,0,0-28.7-1.5A6.7,6.7,0,0,1,300.8,149.4Z" transform="translate(-102 -124.1)"/></g></g></svg>