<?xml version="1.0" encoding="UTF-8"?>
<svg width="256px" height="256px" viewBox="0 0 256 256" version="1.1" xmlns="http://www.w3.org/2000/svg" xmlns:xlink="http://www.w3.org/1999/xlink">
    <!-- Generator: Sketch 48.2 (47327) - http://www.bohemiancoding.com/sketch -->
    <title>Group 2</title>
    <desc>Created with Sketch.</desc>
    <defs></defs>
    <g id="Page-1" stroke="none" stroke-width="1" fill="none" fill-rule="evenodd">
        <g id="Group-2">
            <path d="M256,128 C256,198.695 198.695,256 128,256 C57.305,256 0,198.695 0,128 C0,57.305 57.305,0 128,0 C198.695,0 256,57.305 256,128 Z" id="Shape" fill-opacity="0.5" fill="#74C080" fill-rule="nonzero"></path>
            <g id="futuro_icons_7" transform="translate(28.000000, 33.000000)">
                <rect id="Rectangle-path" fill="#FFFFFF" fill-rule="nonzero" x="0" y="0" width="200" height="192.857143"></rect>
                <rect id="Rectangle-path" stroke="#5F6465" stroke-width="8" x="0" y="0" width="200" height="192.857143"></rect>
                <path d="M0,28.5714286 L200,28.5714286" id="Shape" stroke="#5F6465" stroke-width="8"></path>
                <path d="M10.7142857,14.2857143 L17.8571429,14.2857143" id="Shape" stroke="#5F6465" stroke-width="8"></path>
                <path d="M25,14.2857143 L32.1428571,14.2857143" id="Shape" stroke="#5F6465" stroke-width="8"></path>
                <path d="M39.2857143,14.2857143 L46.4285714,14.2857143" id="Shape" stroke="#5F6465" stroke-width="8"></path>
                <path d="M57.1428571,3.57142857 L57.1428571,25" id="Shape" stroke="#5F6465" stroke-width="8"></path>
                <path d="M67.8571429,14.2857143 L189.285714,14.2857143" id="Shape" stroke="#5F6465" stroke-width="8"></path>
                <g id="Group" transform="translate(10.714286, 39.285714)" fill-rule="nonzero">
                    <rect id="color-4" fill="#1D6765" x="136.607143" y="0" width="41.9642857" height="42.8571429"></rect>
                    <rect id="color-3" fill="#288784" x="91.0714286" y="0" width="41.9642857" height="42.8571429"></rect>
                    <rect id="color-2" fill="#33ADA9" x="45.5357143" y="0" width="41.9642857" height="42.8571429"></rect>
                    <rect id="color-1" fill="#3CDAD5" x="0" y="0" width="41.9642857" height="42.8571429"></rect>
                    <rect id="Rectangle-path" fill="#FFB957" x="0" y="50" width="85.7142857" height="92.8571429"></rect>
                    <rect id="Rectangle-path" fill="#F28C13" x="92.8571429" y="50" width="85.7142857" height="92.8571429"></rect>
                </g>
            </g>
            <g id="Group" transform="translate(152.000000, 151.000000)">
                <circle id="Oval" stroke="#5F6465" stroke-width="8" fill="#74C080" fill-rule="nonzero" cx="50" cy="50.053125" r="50"></circle>
                <polyline id="Shape" stroke="#FFFFFF" stroke-width="10" points="79.5 31.5 43 67.553125 23.2089844 47.6914062"></polyline>
            </g>
        </g>
    </g>
</svg>