<?xml version="1.0" encoding="UTF-8"?>
<svg width="286px" height="286px" viewBox="0 0 286 286" version="1.1" xmlns="http://www.w3.org/2000/svg" xmlns:xlink="http://www.w3.org/1999/xlink">
    <!-- Generator: Sketch 47.1 (45422) - http://www.bohemiancoding.com/sketch -->
    <title>futuro_icons_308</title>
    <desc>Created with Sketch.</desc>
    <defs></defs>
    <g id="Page-1" stroke="none" stroke-width="1" fill="none" fill-rule="evenodd">
        <g id="futuro_icons_308">
            <circle id="Oval" fill-opacity="0.400000006" fill="#9B9B9B" cx="143" cy="143" r="143"></circle>
            <rect id="Rectangle-path" fill="#FFFFFF" fill-rule="nonzero" x="31" y="31" width="224" height="224"></rect>
            <rect id="Rectangle-path" stroke="#4D5152" stroke-width="8" x="31" y="31" width="224" height="224"></rect>
            <path d="M31,63 L255,63" id="Shape" stroke="#4D5152" stroke-width="8"></path>
            <path d="M43,47 L51,47" id="Shape" stroke="#4D5152" stroke-width="8"></path>
            <path d="M59,47 L67,47" id="Shape" stroke="#4D5152" stroke-width="8"></path>
            <path d="M75,47 L83,47" id="Shape" stroke="#4D5152" stroke-width="8"></path>
            <path d="M95,31 L95,63" id="Shape" stroke="#4D5152" stroke-width="8"></path>
            <path d="M107,47 L243,47" id="Shape" stroke="#4D5152" stroke-width="8"></path>
            <g id="Group" transform="translate(51.000000, 83.000000)">
                <rect id="Rectangle-path" fill-opacity="0.350000024" fill="#67DDE0" fill-rule="nonzero" x="32" y="0" width="32" height="8"></rect>
                <rect id="Rectangle-path" fill-opacity="0.350000024" fill="#67DDE0" fill-rule="nonzero" x="32" y="16" width="56" height="8"></rect>
                <rect id="Rectangle-path" fill-opacity="0.350000024" fill="#67DDE0" fill-rule="nonzero" x="32" y="96" width="56" height="8"></rect>
                <rect id="Rectangle-path" fill-opacity="0.350000024" fill="#FFB957" fill-rule="nonzero" x="32" y="32" width="56" height="8"></rect>
                <rect id="Rectangle-path" fill-opacity="0.350000024" fill="#F28C13" fill-rule="nonzero" x="96" y="32" width="48" height="8"></rect>
                <rect id="Rectangle-path" fill-opacity="0.350000024" fill="#FFB957" fill-rule="nonzero" x="56" y="48" width="32" height="8"></rect>
                <rect id="Rectangle-path" fill-opacity="0.350000024" fill="#FFB957" fill-rule="nonzero" x="96" y="48" width="72" height="8"></rect>
                <rect id="Rectangle-path" fill-opacity="0.350000024" fill="#FFB957" fill-rule="nonzero" x="56" y="80" width="32" height="8"></rect>
                <rect id="Rectangle-path" fill-opacity="0.350000024" fill="#FFB957" fill-rule="nonzero" x="96" y="80" width="56" height="8"></rect>
                <rect id="Rectangle-path" fill-opacity="0.350000024" fill="#FFB957" fill-rule="nonzero" x="56" y="64" width="32" height="8"></rect>
                <rect id="Rectangle-path" fill-opacity="0.350000024" fill="#FFB957" fill-rule="nonzero" x="96" y="64" width="40" height="8"></rect>
                <rect id="Rectangle-path" fill-opacity="0.350000024" fill="#FFB957" fill-rule="nonzero" x="32" y="112" width="56" height="8"></rect>
                <rect id="Rectangle-path" fill-opacity="0.350000024" fill="#F28C13" fill-rule="nonzero" x="96" y="112" width="48" height="8"></rect>
                <rect id="Rectangle-path" fill-opacity="0.350000024" fill="#FFB957" fill-rule="nonzero" x="56" y="128" width="32" height="8"></rect>
                <rect id="Rectangle-path" fill-opacity="0.350000024" fill="#FFB957" fill-rule="nonzero" x="96" y="128" width="40" height="8"></rect>
                <rect id="Rectangle-path" fill-opacity="0.350000024" fill="#FFB957" fill-rule="nonzero" x="56" y="144" width="32" height="8"></rect>
                <rect id="Rectangle-path" fill-opacity="0.350000024" fill="#FFB957" fill-rule="nonzero" x="96" y="144" width="64" height="8"></rect>
                <path d="M0,4 L16,4" id="Shape" stroke="#4D5152" stroke-width="8"></path>
                <path d="M0,20 L16,20" id="Shape" stroke="#4D5152" stroke-width="8"></path>
                <path d="M0,36 L16,36" id="Shape" stroke="#4D5152" stroke-width="8"></path>
                <path d="M0,52 L16,52" id="Shape" stroke="#4D5152" stroke-width="8"></path>
                <path d="M0,68 L16,68" id="Shape" stroke="#4D5152" stroke-width="8"></path>
                <path d="M0,84 L16,84" id="Shape" stroke="#4D5152" stroke-width="8"></path>
                <path d="M0,100 L16,100" id="Shape" stroke="#4D5152" stroke-width="8"></path>
                <path d="M0,116 L16,116" id="Shape" stroke="#4D5152" stroke-width="8"></path>
                <path d="M0,132 L16,132" id="Shape" stroke="#4D5152" stroke-width="8"></path>
                <path d="M0,148 L16,148" id="Shape" stroke="#4D5152" stroke-width="8"></path>
            </g>
        </g>
    </g>
</svg>