<?xml version="1.0" encoding="UTF-8"?>
<svg width="900px" height="900px" viewBox="0 0 900 900" version="1.1" xmlns="http://www.w3.org/2000/svg" xmlns:xlink="http://www.w3.org/1999/xlink">
    <!-- Generator: Sketch 46 (44423) - http://www.bohemiancoding.com/sketch -->
    <title>Stylepills-main-short-logo</title>
    <desc>Created with Sketch.</desc>
    <defs></defs>
    <g id="Page-1" stroke="none" stroke-width="1" fill="none" fill-rule="evenodd">
        <g id="style_pill" fill-rule="nonzero">
            <path d="M448.887747,822.920886 C399.60642,872.270153 332.725808,900 262.98343,900 C193.241053,900 126.36044,872.270153 77.0791135,822.920886 L77.0791135,822.920886 C27.7298474,773.63956 1.84101689e-14,706.758947 0,637.01657 C-1.84101689e-14,567.274192 27.7298474,500.39358 77.0791135,451.112253 L451.219648,76.971719 C553.909641,-25.6572397 720.338288,-25.6572397 823.028281,76.971719 L823.028281,76.971719 C925.65724,179.661712 925.65724,346.090359 823.028281,448.780352 L448.887747,822.920886 Z" id="Shape" fill="#39C1BC"></path>
            <path d="M421.517451,478.266279 C358.581307,415.774258 303.947155,345.441212 258.961067,269 L76.9601395,451.038325 C-25.7039822,553.795149 -25.6459447,720.33883 77.0897698,823.024047 C179.825484,925.709264 346.334951,925.651214 448.999073,822.89439 L631,640.856065 C554.488297,595.872051 484.082541,541.226655 421.517451,478.266279 L421.517451,478.266279 Z" id="Shape" fill="#F8E71C"></path>
            <path d="M635,146 C583.093407,146 541,120.376147 541,89 C541,57.6238532 583.093407,32 635,32 C686.906593,32 729,57.6238532 729,89 C729,120.376147 687.164835,146 635,146 Z" id="Shape" fill="#31906C" style="mix-blend-mode: screen;"></path>
            <path d="M888.682814,188 C876.154919,229.345141 853.543906,266.939306 822.877783,297.410631 L448.77359,671.165623 C383.43152,736.403582 288.585713,762.611167 198.945091,740.197684 C109.30447,717.784201 38.0267318,650.039563 11.1960401,561.754992 C-23.5462612,676.929982 24.5543257,800.944406 127.930137,862.722458 C231.305948,924.50051 363.510324,908.237495 448.77359,823.254159 L822.877783,449.757821 C891.54331,381.330545 916.843968,280.690138 888.682814,188 Z" id="Shape" fill="#454B54" opacity="0.2" style="mix-blend-mode: multiply;"></path>
        </g>
    </g>
</svg>