<?xml version="1.0" encoding="UTF-8"?>
<svg width="862px" height="227px" viewBox="0 0 862 227" version="1.1" xmlns="http://www.w3.org/2000/svg" xmlns:xlink="http://www.w3.org/1999/xlink">
    <!-- Generator: Sketch 46 (44423) - http://www.bohemiancoding.com/sketch -->
    <title>Stylepills-outline-white 2</title>
    <desc>Created with Sketch.</desc>
    <defs></defs>
    <g id="Page-1" stroke="none" stroke-width="1" fill="none" fill-rule="evenodd">
        <g id="Stylepills-outline-white">
            <g id="Pill" transform="translate(28.000000, 56.000000)">
                <path d="M58.3993914,107.569421 C45.1831255,120.898647 23.7233806,120.898647 10.5071147,107.569421 L10.5071147,107.569421 C-2.70915122,94.2401958 -2.70915122,72.5970343 10.5071147,59.2678088 L58.6997611,10.6632594 C71.916027,-2.66596602 93.3757719,-2.66596602 106.592038,10.6632594 L106.592038,10.6632594 C119.808304,23.9924849 119.808304,45.6356464 106.592038,58.9648719 L58.3993914,107.569421 Z" id="Shape" stroke="#FFFFFF" stroke-width="8"></path>
                <path d="M54.8617041,62.8693925 C46.3178554,54.2525194 39.3092296,44.9961129 33.9359497,35.672387 L10.5071147,59.3014685 C-2.70915122,72.6306939 -2.70915122,94.2401958 10.5071147,107.603081 C23.7233806,120.932306 45.1831255,120.932306 58.3993914,107.603081 L81.8282265,83.9739994 C72.5835152,78.5211345 63.4055528,71.4526058 54.8617041,62.8693925 Z" id="Shape" stroke="#F8E71C" stroke-width="8" fill="#F8E71C" fill-rule="nonzero"></path>
                <path d="M83.2299516,27.9643238 C76.5216955,27.9643238 71.0816668,24.6656771 71.0816668,20.6265178 C71.0816668,16.5873586 76.5216955,13.2887119 83.2299516,13.2887119 C89.9382078,13.2887119 95.3782365,16.5873586 95.3782365,20.6265178 C95.4116109,24.6656771 89.9715822,27.9643238 83.2299516,27.9643238 Z" id="Shape" fill="#9D9D9D" fill-rule="nonzero"></path>
            </g>
            <text id="Stylepills" font-family="Quicksand-Medium, Quicksand" font-size="144" font-weight="400">
                <tspan x="195" y="166" fill="#F8E71C">Style</tspan>
                <tspan x="533.976" y="166" fill="#FFFFFF">pills</tspan>
            </text>
        </g>
    </g>
</svg>