<svg width="22px" height="22px" viewBox="0 0 22 22" version="1.1" xmlns="http://www.w3.org/2000/svg">
    <defs></defs>
    <g stroke="none" stroke-width="1" fill="none" fill-rule="evenodd">
        <g transform="translate(-41.000000, -22.000000)" fill-rule="nonzero">
            <g transform="translate(0.000000, -1.000000)">
                <g transform="translate(41.000000, 22.000000)">
                    <g transform="translate(0.000000, 1.000000)">
                        <path d="M11.3969342,19.3421576 C10.2386124,20.5020762 8.66663223,21.1538462 7.02738832,21.1538462 C5.3881444,21.1538462 3.81616419,20.5020762 2.65784241,19.3421576 L2.65784241,19.3421576 C1.49792376,18.1838358 0.846153846,16.6118556 0.846153846,14.9726117 C0.846153846,13.3333678 1.49792376,11.7613876 2.65784241,10.6030658 L11.4517439,1.80916434 C13.8653975,-0.603054779 17.777182,-0.603054779 20.1908357,1.80916434 L20.1908357,1.80916434 C22.6030548,4.22281801 22.6030548,8.13460247 20.1908357,10.5482561 L11.3969342,19.3421576 Z" id="Shape" fill="#39C1BC"></path>
                        <path d="M6.77573806,6.4686561 L2.69214109,10.5669814 C0.23375187,12.9094812 0.232037513,17.0581935 2.69214109,19.3990609 C5.15224467,21.7399284 8.91324915,21.7415608 11.3716384,19.3990609 L15.73449,15.0061904 C13.9023452,13.9807106 12.4379668,12.975056 10.9397868,11.5397774 C9.43272143,10.1151757 7.85297237,8.21125109 6.77573806,6.4686561 Z" id="Shape" fill="#F8E71C"></path>
                        <path d="M15.6538462,3.02197802 C14.4857354,3.02197802 13.5384615,2.47857647 13.5384615,1.81318681 C13.5384615,1.14779716 14.4857354,0.604395604 15.6538462,0.604395604 C16.8219569,0.604395604 17.7692308,1.14779716 17.7692308,1.81318681 C17.7692308,2.47857647 16.8277684,3.02197802 15.6538462,3.02197802 Z" id="Shape" fill="#31906C" style="mix-blend-mode: screen;"></path>
                        <path d="M21.6880634,4.22209285 C21.3936043,5.2047993 20.9080833,6.10702759 20.1872983,6.8312812 L11.394251,15.7148268 C9.85843316,17.2654265 7.62915137,17.888338 5.52221368,17.3556061 C3.415276,16.8228743 1.75766181,15.2250491 1.1270259,13.1266691 C0.267315204,15.8720468 1.3924485,18.8414822 3.85305878,20.2678199 C4.84145876,20.840764 5.93239411,21.1481277 7.01730816,21.1536396 C8.63327505,21.1618495 10.2315786,20.5308238 11.4230769,19.3557951 L20.2329876,10.4937228 C21.8469209,8.8673182 22.4001981,6.41608136 21.6880634,4.22209285 Z" id="Shape" fill="#454B54" opacity="0.2" style="mix-blend-mode: multiply;"></path>
                    </g>                    
                </g>
            </g>
        </g>
    </g>
</svg>